<svg width="1440px" height="105px" viewBox="0 0 1440 105" xmlns="http://www.w3.org/2000/svg">
  <g fill="#E0D7CE" fill-rule="nonzero">
    <path d="M562.319214 64.4357032L537.431184 64.4357032 562.319214 18.787529 587.207242 64.4357032 562.319214 64.4357032zM575.901354 0L562.319214 0 550.259599 0 492.222702 104.458065 515.497758 104.458065 528.228188 81.2310677 562.319214 81.2310677 596.410238 81.2310677 609.140668 104.458065 633.923177 104.458065 575.901354 0zM827.829089 0L850.202849 0 850.202849 42.6636581 924.782046 42.6636581 924.782046 0 947.155805 0 947.155805 104.458065 924.782046 104.458065 924.782046 61.3616516 850.202849 61.3616516 850.202849 104.458065 827.829089 104.458065zM727.231696 86.0436C748.89266 86.0436 767.05744 74.2099935 767.05744 52.5946355L767.05744 51.4232129C767.05744 29.9421581 749.645683 18.4144645 726.932025 18.4144645L686.806607 18.4144645 686.806607 86.0436 727.231696 86.0436zM663.754855 0L728.130714 0C765.897169 0 790.539491 19.8694161 790.539491 51.1247613L790.539491 52.3036452C790.539491 83.5589903 765.743489 104.458065 727.992404 104.458065L663.754855 104.458065 663.754855 0zM1376.07071 86.0436C1397.73168 86.0436 1415.89646 74.2099935 1415.89646 52.5946355L1415.89646 51.4232129C1415.89646 29.9421581 1398.4847 18.4144645 1375.77104 18.4144645L1335.64562 18.4144645 1335.64562 86.0436 1376.07071 86.0436zM1312.59387 0L1376.96973 0C1414.73619 0 1439.37851 19.8694161 1439.37851 51.1247613L1439.37851 52.3036452C1439.37851 83.5589903 1414.5825 104.458065 1376.83142 104.458065L1312.59387 104.458065 1312.59387 0zM991.903323 0L1111.23004 0 1111.23004 18.4144645 1014.27708 18.4144645 1014.27708 42.8054226 1092.58524 42.8054226 1092.58524 60.0484645 1014.27708 60.0484645 1014.27708 86.0436 1111.23004 86.0436 1111.23004 104.458065 991.903323 104.458065zM343.064307 0L462.391023 0 462.391023 18.4144645 365.438066 18.4144645 365.438066 42.8054226 443.746224 42.8054226 443.746224 60.0484645 365.438066 60.0484645 365.438066 86.0436 462.391023 86.0436 462.391023 104.458065 343.064307 104.458065zM271.169961 34.4413161C271.169961 44.5289806 264.532413 51.0874548 253.352991 51.0874548L193.868623 51.0874548 193.905913 18.1160129 253.352991 18.1458581C263.652378 18.1458581 271.169961 23.1896903 271.169961 33.8593355L271.169961 34.4413161zM298.316789 104.458065L275.107743 62.2420839C283.072801 58.8397355 293.103703 48.752071 293.103703 33.7101097L293.103703 33.128129C293.103703 11.512771 277.486819.0373064516 252.801105.0373064516L171.532154 0 171.532154 104.458065 193.905913 104.458065 193.905913 67.1516129 253.569271 67.1516129 273.795149 104.458065 298.316789 104.458065zM1185.96585 64.4357032L1211.16616 18.787529 1236.35902 64.4357032 1185.96585 64.4357032zM1225.35113 0L1198.49516 0 1141.06172 104.458065 1164.07686 104.458065 1176.52413 81.2310677 1245.79328 81.2310677 1258.24055 104.458065 1282.76219 104.458065 1225.35113 0zM97.4703138 73.3370226C97.4703138 82.8277839 91.2601923 88.1029161 80.8195628 88.1029161L21.9957079 88.1029161 21.9957079 16.2133839 78.6713153 16.2133839C88.7820091 16.2133839 94.4569018 20.1604065 94.4569018 28.9274226L94.4569018 29.5168645C94.4569018 38.8658613 89.3612294 42.9546484 78.8106215 42.9546484L43.9914158 42.9546484 43.9914158 58.1532968 79.6684541 58.1532968C91.4361579 58.1532968 97.4703138 63.1150548 97.4703138 72.7550419L97.4703138 73.3370226zM98.7973882 50.1174871C110.279148 46.7524452 115.448139 37.6795161 115.448139 27.7634613L115.448139 27.1740194C115.448139 9.34899677 103.819742 0 81.4281107 0L0 0 0 104.458065 83.2904142 104.458065C106.979792 104.458065 119.326716 94.3778613 119.326716 75.2396516L119.326716 74.657671C119.326716 60.6304452 110.205829 51.3486 98.7973882 50.1174871z"/>
  </g>
</svg>
