<?xml version="1.0" standalone="no"?>
<!DOCTYPE svg PUBLIC "-//W3C//DTD SVG 20010904//EN"
 "http://www.w3.org/TR/2001/REC-SVG-20010904/DTD/svg10.dtd">
<svg version="1.0" xmlns="http://www.w3.org/2000/svg"
 width="384.000000pt" height="384.000000pt" viewBox="0 0 384.000000 384.000000"
 preserveAspectRatio="xMidYMid meet">
<metadata>
Created by potrace 1.11, written by Peter Selinger 2001-2013
</metadata>
<g transform="translate(0.000000,384.000000) scale(0.100000,-0.100000)"
fill="#000000" stroke="none">
<path d="M1716 3829 c-655 -69 -1236 -481 -1525 -1079 -460 -953 -58 -2098
899 -2559 953 -460 2098 -58 2559 899 460 953 58 2098 -899 2559 -320 154
-681 217 -1034 180z m794 -1049 c217 -34 352 -132 401 -293 31 -99 24 -258
-13 -339 -36 -77 -99 -142 -171 -177 l-60 -29 54 -16 c158 -45 262 -183 276
-365 16 -215 -74 -391 -241 -470 -138 -66 -111 -65 -978 -68 l-788 -4 0 886 0
885 728 0 c436 0 753 -4 792 -10z"/>
<path d="M1367 2514 c-4 -4 -7 -279 -7 -611 l0 -603 528 0 c574 0 587 1 659
55 97 75 113 267 30 362 -18 20 -52 46 -77 57 -42 20 -67 21 -405 26 l-360 5
-3 127 -3 127 343 3 c306 3 348 5 385 22 83 35 123 107 123 216 -1 100 -52
171 -145 201 -45 14 -1054 27 -1068 13z"/>
</g>
</svg>
